#Comment line ignore any data following # character 
#Hierarchical Translation and Rotation (.htr) file 
[Header]	
#Header keywords are followed by a single value 
FileType HTR		#Single word string
DataType HTRS		#Translation followed by rotation and scale data
FileVersion 1		#integer
NumSegments 64		#integer
NumFrames 3		#integer
DataFrameRate 30		#integer, data frame rate in this file
EulerRotationOrder ZYX
CalibrationUnits mm
RotationUnits Degrees
GlobalAxisofGravity Y
BoneLengthAxis Y
ScaleFactor 1.00
[SegmentNames&Hierarchy]
#CHILD	PARENT
Pinger_Root GLOBAL
Pelvis Pinger_Root
L_Hip Pelvis
R_Hip Pelvis
Rear_Leg01 Pelvis
Spine1 Pelvis
L_Leg01 L_Hip
L_Leg02 L_Leg01
L_Leg03 L_Leg02
L_Foot L_Leg03
L_Toe1_01 L_Foot
L_Toe2_01 L_Foot
L_Toe3_01 L_Foot
planeAlignerLeft L_Foot
L_Toe1_02 L_Toe1_01
L_Toe1_03 L_Toe1_02
L_Toe2_02 L_Toe2_01
L_Toe2_03 L_Toe2_02
L_Toe3_02 L_Toe3_01
L_Toe3_03 L_Toe3_02
planeLockWeightLeft planeAlignerLeft
R_Leg01 R_Hip
R_Leg02 R_Leg01
R_Leg03 R_Leg02
R_Foot R_Leg03
planeAlignerRight R_Foot
R_Toe1_01 R_Foot
R_Toe2_01 R_Foot
R_Toe3_01 R_Foot
planeLockWeightRight planeAlignerRight
R_Toe1_02 R_Toe1_01
R_Toe1_03 R_Toe1_02
R_Toe2_02 R_Toe2_01
R_Toe2_03 R_Toe2_02
R_Toe3_02 R_Toe3_01
R_Toe3_03 R_Toe3_02
Rear_Leg02 Rear_Leg01
Rear_Leg03 Rear_Leg02
Rear_Leg04 Rear_Leg03
Rear_Foot Rear_Leg04
planeAlignerCenter Rear_Foot
Rear_Toe1_01 Rear_Foot
Rear_Toe2_01 Rear_Foot
Rear_Toe3_01 Rear_Foot
planeLockWeightCenter planeAlignerCenter
Rear_Toe1_02 Rear_Toe1_01
Rear_Toe1_03 Rear_Toe1_02
Rear_Toe2_02 Rear_Toe2_01
Rear_Toe2_03 Rear_Toe2_02
Rear_Toe3_02 Rear_Toe3_01
Rear_Toe3_03 Rear_Toe3_02
Back_Bone Spine1
Head Spine1
Motor_Bone Back_Bone
Ping_Mechanism Back_Bone
BN_LookIK Head
bottomMouth Head
L_Mouth01 Head
L_mouthFront Head
mouthGun Head
R_Mouth01 Head
R_mouthFront Head
TopMouth Head
weapon_bone Head
[BasePosition]
#SegmentName Tx, Ty, Tz, Rx, Ry, Rz, BoneLength
Pinger_Root 0.000000 0.000000 0.000000 -90.000000 0.000000 0.000000 10.000000 
Pelvis 0.000000 0.000000 0.000000 0.000000 0.000000 0.000000 10.000000 
L_Hip 0.000000 0.000000 0.000000 0.000000 0.000000 0.000000 10.000000 
R_Hip 0.000000 0.000000 0.000000 0.000000 0.000000 0.000000 10.000000 
Rear_Leg01 0.000000 0.000000 0.000000 0.000000 0.000000 0.000000 10.000000 
Spine1 0.000000 0.000000 0.000000 0.000000 0.000000 0.000000 10.000000 
L_Leg01 0.000000 0.000000 0.000000 0.000000 0.000000 0.000000 10.000000 
L_Leg02 0.000000 0.000000 0.000000 0.000000 0.000000 0.000000 10.000000 
L_Leg03 0.000000 0.000000 0.000000 0.000000 0.000000 0.000000 10.000000 
L_Foot 0.000000 0.000000 0.000000 0.000000 0.000000 0.000000 10.000000 
L_Toe1_01 0.000000 0.000000 0.000000 0.000000 0.000000 0.000000 10.000000 
L_Toe2_01 0.000000 0.000000 0.000000 0.000000 0.000000 0.000000 10.000000 
L_Toe3_01 0.000000 0.000000 0.000000 0.000000 0.000000 0.000000 10.000000 
planeAlignerLeft 0.000000 0.000000 0.000000 0.000000 0.000000 0.000000 10.000000 
L_Toe1_02 0.000000 0.000000 0.000000 0.000000 0.000000 0.000000 10.000000 
L_Toe1_03 0.000000 0.000000 0.000000 0.000000 0.000000 0.000000 10.000000 
L_Toe2_02 0.000000 0.000000 0.000000 0.000000 0.000000 0.000000 10.000000 
L_Toe2_03 0.000000 0.000000 0.000000 0.000000 0.000000 0.000000 10.000000 
L_Toe3_02 0.000000 0.000000 0.000000 0.000000 0.000000 0.000000 10.000000 
L_Toe3_03 0.000000 0.000000 0.000000 0.000000 0.000000 0.000000 10.000000 
planeLockWeightLeft 0.000000 0.000000 0.000000 0.000000 0.000000 0.000000 10.000000 
R_Leg01 0.000000 0.000000 0.000000 0.000000 0.000000 0.000000 10.000000 
R_Leg02 0.000000 0.000000 0.000000 0.000000 0.000000 0.000000 10.000000 
R_Leg03 0.000000 0.000000 0.000000 0.000000 0.000000 0.000000 10.000000 
R_Foot 0.000000 0.000000 0.000000 0.000000 0.000000 0.000000 10.000000 
planeAlignerRight 0.000000 0.000000 0.000000 0.000000 0.000000 0.000000 10.000000 
R_Toe1_01 0.000000 0.000000 0.000000 0.000000 0.000000 0.000000 10.000000 
R_Toe2_01 0.000000 0.000000 0.000000 0.000000 0.000000 0.000000 10.000000 
R_Toe3_01 0.000000 0.000000 0.000000 0.000000 0.000000 0.000000 10.000000 
planeLockWeightRight 0.000000 0.000000 0.000000 0.000000 0.000000 0.000000 10.000000 
R_Toe1_02 0.000000 0.000000 0.000000 0.000000 0.000000 0.000000 10.000000 
R_Toe1_03 0.000000 0.000000 0.000000 0.000000 0.000000 0.000000 10.000000 
R_Toe2_02 0.000000 0.000000 0.000000 0.000000 0.000000 0.000000 10.000000 
R_Toe2_03 0.000000 0.000000 0.000000 0.000000 0.000000 0.000000 10.000000 
R_Toe3_02 0.000000 0.000000 0.000000 0.000000 0.000000 0.000000 10.000000 
R_Toe3_03 0.000000 0.000000 0.000000 0.000000 0.000000 0.000000 10.000000 
Rear_Leg02 0.000000 0.000000 0.000000 0.000000 0.000000 0.000000 10.000000 
Rear_Leg03 0.000000 0.000000 0.000000 0.000000 0.000000 0.000000 10.000000 
Rear_Leg04 0.000000 0.000000 0.000000 0.000000 0.000000 0.000000 10.000000 
Rear_Foot 0.000000 0.000000 0.000000 0.000000 0.000000 0.000000 10.000000 
planeAlignerCenter 0.000000 0.000000 0.000000 0.000000 0.000000 0.000000 10.000000 
Rear_Toe1_01 0.000000 0.000000 0.000000 0.000000 0.000000 0.000000 10.000000 
Rear_Toe2_01 0.000000 0.000000 0.000000 0.000000 0.000000 0.000000 10.000000 
Rear_Toe3_01 0.000000 0.000000 0.000000 0.000000 0.000000 0.000000 10.000000 
planeLockWeightCenter 0.000000 0.000000 0.000000 0.000000 0.000000 0.000000 10.000000 
Rear_Toe1_02 0.000000 0.000000 0.000000 0.000000 0.000000 0.000000 10.000000 
Rear_Toe1_03 0.000000 0.000000 0.000000 0.000000 0.000000 0.000000 10.000000 
Rear_Toe2_02 0.000000 0.000000 0.000000 0.000000 0.000000 0.000000 10.000000 
Rear_Toe2_03 0.000000 0.000000 0.000000 0.000000 0.000000 0.000000 10.000000 
Rear_Toe3_02 0.000000 0.000000 0.000000 0.000000 0.000000 0.000000 10.000000 
Rear_Toe3_03 0.000000 0.000000 0.000000 0.000000 0.000000 0.000000 10.000000 
Back_Bone 0.000000 0.000000 0.000000 0.000000 0.000000 0.000000 10.000000 
Head 0.000000 0.000000 0.000000 0.000000 0.000000 0.000000 10.000000 
Motor_Bone 0.000000 0.000000 0.000000 0.000000 0.000000 0.000000 10.000000 
Ping_Mechanism 0.000000 0.000000 0.000000 0.000000 0.000000 0.000000 10.000000 
BN_LookIK 0.000000 0.000000 0.000000 0.000000 0.000000 0.000000 10.000000 
bottomMouth 0.000000 0.000000 0.000000 0.000000 0.000000 0.000000 10.000000 
L_Mouth01 0.000000 0.000000 0.000000 0.000000 0.000000 0.000000 10.000000 
L_mouthFront 0.000000 0.000000 0.000000 0.000000 0.000000 0.000000 10.000000 
mouthGun 0.000000 0.000000 0.000000 0.000000 0.000000 0.000000 10.000000 
R_Mouth01 0.000000 0.000000 0.000000 0.000000 0.000000 0.000000 10.000000 
R_mouthFront 0.000000 0.000000 0.000000 0.000000 0.000000 0.000000 10.000000 
TopMouth 0.000000 0.000000 0.000000 0.000000 0.000000 0.000000 10.000000 
weapon_bone 0.000000 0.000000 0.000000 0.000000 0.000000 0.000000 10.000000 
#Beginning of Data. Separated by tabs
#Fr	Tx	Ty	Tz	Rx	Ry	Rz	SF
[Pinger_Root]
61 -0.000020 -2500.000000 0.000000 -0.000075 -0.000000 -0.000020 2500.000000
62 -0.000020 -2500.000000 0.000000 -0.000075 -0.000000 -0.000020 2500.000000
63 -0.000020 -2500.000000 0.000000 -0.000075 -0.000000 -0.000020 2500.000000
[Pelvis]
61 97.158173 1018.231628 4109.575684 -73.273605 -71.269333 71.530800 4234.955566
62 91.589539 1012.241821 4138.589355 -73.881958 -70.391212 71.840050 4261.565918
63 86.020950 1006.251953 4167.603516 -74.361664 -70.022011 72.027344 4288.223633
[L_Hip]
61 5.766392 125.831482 872.656799 160.551178 -62.216816 114.300819 881.701050
62 5.766392 125.831482 872.656799 160.318451 -60.916340 114.989136 881.701050
63 5.766392 125.831482 872.656799 160.125854 -59.615810 115.639626 881.701050
[R_Hip]
61 5.765438 125.836372 -872.654907 34.209644 65.178818 121.319923 881.699829
62 5.765438 125.836372 -872.654907 34.815559 64.001862 121.877022 881.699829
63 5.765438 125.836372 -872.654907 35.371861 62.822960 122.384315 881.699829
[Rear_Leg01]
61 -192.298416 -925.602966 -0.001907 176.931366 4.165709 -157.005188 945.367432
62 -192.298416 -925.602966 -0.001907 176.387375 4.214587 -163.678619 945.367432
63 -192.298416 -925.602966 -0.001907 176.015427 4.382098 -167.235916 945.367432
[Spine1]
61 290.604584 5.007505 0.000477 -0.590698 -4.948206 7.308176 290.647736
62 290.604584 5.007505 0.000477 -0.221201 -5.079680 6.247338 290.647736
63 290.604584 5.007505 0.000477 0.149869 -5.090558 5.693089 290.647736
[L_Leg01]
61 761.932007 -0.002384 -0.069261 19.078991 -39.029606 -19.909330 761.932068
62 761.932007 -0.002384 -0.069261 17.976402 -38.049145 -18.535969 761.932068
63 761.932007 -0.002384 -0.069261 16.918123 -37.048603 -17.204617 761.932068
[L_Leg02]
61 1441.140503 -0.000954 -0.000715 2.894623 -0.023478 -123.605919 1441.140503
62 1441.140503 -0.000954 -0.000715 2.886274 -0.017323 -123.079422 1441.140503
63 1441.140503 -0.000954 -0.000715 2.877981 -0.011090 -122.552940 1441.140503
[L_Leg03]
61 1686.963989 -0.000715 -0.000954 -0.044379 0.022656 122.519402 1686.963989
62 1686.963989 -0.000715 -0.000954 -0.045113 0.024210 122.794083 1686.963989
63 1686.963989 -0.000715 -0.000954 -0.044656 0.023311 122.716286 1686.963989
[L_Foot]
61 3041.570068 -30.715107 11.297464 -0.618829 9.322146 45.813530 3041.746094
62 3041.570068 -30.715107 11.297464 -0.204405 9.600822 46.203251 3041.746094
63 3041.570068 -30.715107 11.297464 0.091530 9.902535 46.477486 3041.746094
[L_Toe1_01]
61 -188.216690 -224.732346 -21.137953 91.805313 -5.165139 -169.795410 293.899567
62 -188.216690 -224.732346 -21.137953 91.981529 -5.305459 -170.343765 293.899567
63 -188.216690 -224.732346 -21.137953 92.159119 -5.444087 -170.892624 293.899567
[L_Toe2_01]
61 200.746536 -219.926590 148.838394 -85.896584 -21.090517 -44.092861 332.896027
62 200.746536 -219.926590 148.838394 -86.262589 -21.492043 -44.607170 332.896027
63 200.746536 -219.926590 148.838394 -86.625771 -21.896688 -45.120247 332.896027
[L_Toe3_01]
61 188.832520 -219.859131 -191.078659 -103.026817 21.499716 -53.476276 347.140900
62 188.832520 -219.859131 -191.078659 -102.722305 20.882483 -54.212959 347.140900
63 188.832520 -219.859131 -191.078659 -102.534409 20.345774 -55.152294 347.140900
[planeAlignerLeft]
61 61.588306 -530.617615 43.993301 169.360596 -82.652069 94.811905 535.988403
62 60.870075 -532.441650 48.362408 169.412537 -82.191940 94.403969 538.087585
63 60.151844 -534.265808 52.731514 169.438812 -81.731644 94.021347 540.221069
[L_Toe1_02]
61 413.761139 0.000477 0.000000 0.001385 -25.870834 0.001385 413.761139
62 413.761139 0.000477 0.000000 0.001385 -25.884359 0.001385 413.761139
63 413.761139 0.000477 0.000000 0.001385 -25.897896 0.001385 413.761139
[L_Toe1_03]
61 464.317322 0.000358 -0.000089 0.004053 56.334515 0.004053 464.317322
62 464.317322 0.000358 -0.000089 0.004072 56.500282 0.004072 464.317322
63 464.317322 0.000358 -0.000089 0.004092 56.666050 0.004092 464.317322
[L_Toe2_02]
61 342.235809 -0.000477 0.000238 0.001184 -75.089615 0.001184 342.235809
62 342.235809 -0.000477 0.000238 0.001184 -74.938026 0.001184 342.235809
63 342.235809 -0.000477 0.000238 0.001184 -74.786423 0.001184 342.235809
[L_Toe2_03]
61 420.210846 -0.000715 0.000000 -179.980408 86.913391 -179.976913 420.210846
62 420.210846 -0.000715 0.000000 -179.976517 87.390076 -179.973007 420.210846
63 420.210846 -0.000715 0.000000 -179.970856 87.867233 -179.967361 420.210846
[L_Toe3_02]
61 329.270111 0.000954 0.000000 0.002344 -82.648834 0.002344 329.270111
62 329.270111 0.000954 0.000000 0.002149 -82.561195 0.002149 329.270111
63 329.270111 0.000954 0.000000 0.001955 -82.473526 0.001955 329.270111
[L_Toe3_03]
61 439.137451 -0.001907 0.000954 179.992493 67.948593 179.998901 439.137451
62 439.137451 -0.001907 0.000954 179.994614 68.475906 -179.999695 439.137451
63 439.137451 -0.001907 0.000954 179.996826 69.003212 -179.998184 439.137451
[planeLockWeightLeft]
61 1000.000244 -0.000140 -0.000095 -0.011826 -0.004376 0.005620 1000.000244
62 1000.000244 -0.000148 -0.000095 -0.011826 -0.004376 0.005620 1000.000244
63 1000.000366 -0.000157 -0.000095 -0.011826 -0.004376 0.005620 1000.000366
[R_Leg01]
61 761.455627 -0.001907 -0.000358 134.606415 -9.752025 40.289276 761.455688
62 761.455627 -0.001907 -0.000358 135.201782 -10.251071 38.251106 761.455688
63 761.455627 -0.001907 -0.000358 135.387909 -10.700098 36.456944 761.455688
[R_Leg02]
61 1441.140625 0.000000 -0.000238 -2.682757 -1.621451 -118.292076 1441.140625
62 1441.140625 0.000000 -0.000238 -2.615535 -1.505114 -118.170494 1441.140625
63 1441.140625 0.000000 -0.000238 -2.548071 -1.388919 -118.048782 1441.140625
[R_Leg03]
61 1686.963989 0.000954 0.001431 0.144299 -0.097559 149.681870 1686.963989
62 1686.963989 0.000954 0.001431 0.141299 -0.095922 148.946381 1686.963989
63 1686.963989 0.000954 0.001431 0.137626 -0.092057 147.863892 1686.963989
[R_Foot]
61 3041.560059 -30.531288 -11.204481 -0.599478 -12.122821 49.443840 3041.734131
62 3041.560059 -30.531288 -11.204481 -1.170120 -12.607714 49.778004 3041.734131
63 3041.560059 -30.531288 -11.204481 -1.262496 -13.174645 49.973526 3041.734131
[planeAlignerRight]
61 -119.631180 -594.041199 -294.218475 -36.679607 -72.540749 -63.622173 673.617920
62 -123.685783 -583.374268 -304.291901 -36.629021 -72.011261 -63.945965 669.490295
63 -126.238335 -576.478760 -310.672852 -36.589207 -71.481644 -64.259224 666.919434
[R_Toe1_01]
61 -188.383347 -224.864899 21.052242 76.148376 -0.775404 -171.026367 294.101532
62 -188.383347 -224.864899 21.052242 75.548561 -0.667563 -171.983215 294.101532
63 -188.383347 -224.864899 21.052242 75.290421 -0.596597 -172.504593 294.101532
[R_Toe2_01]
61 200.637817 -220.002121 -148.787384 -96.093964 29.301464 -58.920448 332.857574
62 200.637817 -220.002121 -148.787384 -95.730797 30.574785 -59.016113 332.857574
63 200.637817 -220.002121 -148.787384 -95.388206 31.425035 -59.081814 332.857574
[R_Toe3_01]
61 188.606735 -220.092957 191.126343 -69.799988 -9.382082 -73.387573 347.192566
62 188.606735 -220.092957 191.126343 -70.287247 -8.369996 -73.444397 347.192566
63 188.606735 -220.092957 191.126343 -70.634361 -7.834836 -73.476440 347.192566
[planeLockWeightRight]
61 999.999878 0.000194 -0.000404 -0.011823 -0.004379 -0.000027 999.999878
62 999.999878 0.000200 -0.000406 -0.011823 -0.004379 -0.000027 999.999878
63 999.999878 0.000205 -0.000407 -0.011823 -0.004379 -0.000027 999.999878
[R_Toe1_02]
61 413.762085 0.000477 -0.000119 0.001393 -24.846685 0.001393 413.762085
62 413.762085 0.000477 -0.000119 0.001393 -24.758144 0.001393 413.762085
63 413.762085 0.000477 -0.000119 0.001394 -24.669609 0.001394 413.762085
[R_Toe1_03]
61 464.317810 0.000000 0.001088 0.006426 68.954712 0.006426 464.317810
62 464.317810 0.000000 0.001088 0.006516 69.246933 0.006516 464.317810
63 464.317810 0.000000 0.001088 0.006608 69.539154 0.006608 464.317810
[R_Toe2_02]
61 342.234741 -0.000954 0.000238 0.001198 -66.906960 0.001198 342.234741
62 342.234741 -0.000954 0.000238 0.001198 -66.984039 0.001198 342.234741
63 342.234741 -0.000954 0.000238 0.001198 -67.061142 0.001198 342.234741
[R_Toe2_03]
61 420.210846 0.000715 -0.000268 0.008098 73.334320 0.008098 420.210846
62 420.210846 0.000715 -0.000268 0.008111 73.361519 0.008111 420.210846
63 420.210846 0.000715 -0.000268 0.008124 73.388687 0.008124 420.210846
[R_Toe3_02]
61 329.270355 -0.000477 -0.000954 0.001186 -73.656258 0.001186 329.270355
62 329.270355 -0.000477 -0.000954 0.001185 -74.043991 0.001185 329.270355
63 329.270355 -0.000477 -0.000954 0.001185 -74.431648 0.001185 329.270355
[R_Toe3_03]
61 439.137939 0.000238 0.001431 0.016057 81.616714 0.016057 439.137939
62 439.137939 0.000238 0.001431 0.003617 82.356018 0.005369 439.137939
63 439.137939 0.000238 0.001431 -0.011295 83.095245 -0.007792 439.137939
[Rear_Leg02]
61 1162.777710 -0.029802 0.005960 0.205543 -6.780662 -93.941147 1162.777710
62 1162.777710 -0.029802 0.005960 -0.034629 -7.870110 -99.190102 1162.777710
63 1162.777710 -0.029802 0.005960 -0.312919 -8.707076 -100.896973 1162.777710
[Rear_Leg03]
61 607.192505 -0.013351 -0.073195 0.006540 -0.001901 60.629398 607.192505
62 607.192505 -0.013351 -0.073195 0.006550 -0.001863 59.961971 607.192505
63 607.192505 -0.013351 -0.073195 0.006561 -0.001827 59.327351 607.192505
[Rear_Leg04]
61 995.874512 -0.020504 -0.011921 -0.039570 -0.017485 51.594715 995.874573
62 995.874512 -0.020504 -0.011921 -0.039347 -0.017990 50.131439 995.874573
63 995.874512 -0.020504 -0.011921 -0.039111 -0.018489 48.668148 995.874573
[Rear_Foot]
61 3096.176270 -0.067472 -0.041425 -145.946060 80.111412 48.928463 3096.176270
62 3096.176270 -0.067472 -0.041425 -143.866547 79.243408 52.411530 3096.176270
63 3096.176270 -0.067472 -0.041425 -141.980148 78.640274 54.807079 3096.176270
[planeAlignerCenter]
61 -51.925301 -51.401958 -542.258728 7.044639 -0.001555 179.998245 547.158997
62 -47.815884 -61.954021 -546.790771 7.429684 -0.001550 179.998230 552.362915
63 -40.820904 -72.298721 -555.665039 7.814706 -0.001544 179.998230 561.833679
[Rear_Toe1_01]
61 0.653352 83.966492 -371.173737 1.319450 17.460793 93.343430 380.553192
62 0.653352 83.966492 -371.173737 1.310681 17.854891 93.210182 380.553192
63 0.653352 83.966492 -371.173737 1.208136 18.723518 92.829117 380.553192
[Rear_Toe2_01]
61 178.200760 -294.826019 -362.060547 -4.542455 27.776155 -68.769890 499.765686
62 178.200760 -294.826019 -362.060547 -4.864021 27.412241 -68.898232 499.765686
63 178.200760 -294.826019 -362.060547 -5.183606 27.047701 -69.023842 499.765686
[Rear_Toe3_01]
61 -153.359680 -308.780914 -362.060852 1.908249 25.872974 -114.518120 499.952881
62 -153.359680 -308.780914 -362.060852 2.100383 25.268353 -114.115082 499.952881
63 -153.359680 -308.780914 -362.060852 2.269701 25.063942 -113.525795 499.952881
[planeLockWeightCenter]
61 1000.000000 0.000305 -0.000122 -0.011814 -0.004373 -0.000015 1000.000000
62 1000.000000 0.000305 -0.000122 -0.011814 -0.004373 -0.000015 1000.000000
63 1000.000000 0.000305 -0.000122 -0.011814 -0.004373 -0.000015 1000.000000
[Rear_Toe1_02]
61 379.707825 0.194073 0.000477 -0.002644 -32.916367 -0.002644 379.707855
62 379.707825 0.194073 0.000477 -0.002645 -32.863525 -0.002645 379.707855
63 379.707825 0.194073 0.000477 -0.002646 -32.810688 -0.002646 379.707855
[Rear_Toe1_03]
61 500.129700 0.165701 0.000119 -0.066486 89.034492 -0.069983 500.129761
62 500.129700 0.165701 0.000119 0.000000 89.709930 -0.003494 500.129761
63 500.129700 0.165701 0.000119 -179.934769 88.962593 -179.938263 500.129761
[Rear_Toe2_02]
61 340.494507 0.000238 -0.000954 0.001192 -69.694214 0.001192 340.494507
62 340.494507 0.000238 -0.000954 0.001195 -68.383232 0.001195 340.494507
63 340.494507 0.000238 -0.000954 0.001199 -66.640152 0.001199 340.494507
[Rear_Toe2_03]
61 433.103577 0.000000 0.000238 0.006644 69.644615 0.006644 433.103546
62 433.103577 0.000000 0.000238 0.006045 67.611748 0.006045 433.103546
63 433.103577 0.000000 0.000238 0.005432 65.031822 0.005432 433.103546
[Rear_Toe3_02]
61 340.494141 -0.000358 -0.000477 -0.002407 -59.677544 -0.002407 340.494171
62 340.494141 -0.000358 -0.000477 -0.002415 -58.423607 -0.002415 340.494171
63 340.494141 -0.000358 -0.000477 -0.002422 -57.169693 -0.002422 340.494171
[Rear_Toe3_03]
61 433.103577 0.001431 -0.000238 -0.000119 55.700603 -0.003780 433.103546
62 433.103577 0.001431 -0.000238 -0.000026 54.082264 -0.003703 433.103546
63 433.103577 0.001431 -0.000238 0.000060 52.464241 -0.003633 433.103546
[Back_Bone]
61 1312.175781 -701.934692 0.000954 0.428202 -3.655688 -88.768021 1488.125488
62 1312.175781 -701.934692 0.000954 0.024230 -3.655664 -88.521950 1488.125488
63 1312.175781 -701.934692 0.000954 -0.379731 -3.653908 -88.275894 1488.125488
[Head]
61 1406.159424 809.709290 0.001431 0.834526 -0.239505 6.911471 1622.625488
62 1406.159424 809.709290 0.001431 0.777750 -0.322587 6.971094 1622.625488
63 1406.159424 809.709290 0.001431 0.720887 -0.405609 7.030799 1622.625488
[Motor_Bone]
61 1158.364380 -417.834747 0.000477 -1.960025 -0.663914 -106.649643 1231.419434
62 1158.364380 -417.834747 0.000477 -1.845121 -0.485023 -106.470421 1231.419434
63 1158.364380 -417.834747 0.000477 -1.729661 -0.306494 -106.290825 1231.419434
[Ping_Mechanism]
61 1304.237305 -457.564056 23.130421 0.000103 -0.000053 82.120995 1382.365601
62 1306.758545 -458.238312 23.183989 0.000103 -0.000053 82.120995 1384.968506
63 1309.279785 -458.912537 23.237524 0.000103 -0.000053 82.120995 1387.571411
[BN_LookIK]
61 193.241119 1380.371704 -0.002861 0.000000 89.965736 -31.038179 1393.832153
62 193.241119 1380.371704 -0.002861 0.000000 89.965736 -31.038179 1393.832153
63 193.241119 1380.371704 -0.002861 0.000000 89.965736 -31.038179 1393.832153
[bottomMouth]
61 -435.092926 615.759399 -0.000954 -0.000022 0.000016 73.527184 753.966492
62 -435.092926 615.759399 -0.000954 -0.000022 0.000016 73.527184 753.966492
63 -435.092926 615.759399 -0.000954 -0.000022 0.000016 73.527184 753.966492
[L_Mouth01]
61 554.440979 7.658243 838.222046 150.204178 23.759130 109.605339 1005.027161
62 554.440979 7.658243 838.222046 150.204178 23.759130 109.605339 1005.027161
63 554.440979 7.658243 838.222046 150.204178 23.759130 109.605339 1005.027161
[L_mouthFront]
61 551.629089 934.514771 339.150421 0.000081 2.804060 79.119301 1136.941284
62 551.629089 934.514771 339.150421 0.000081 2.804060 79.119301 1136.941284
63 551.629089 934.514771 339.150421 0.000081 2.804060 79.119301 1136.941284
[mouthGun]
61 55.332661 1627.420898 0.000000 0.000023 0.000009 -11.038128 1628.361328
62 55.332661 1627.420898 0.000000 0.000023 0.000009 -11.038128 1628.361328
63 55.332661 1627.420898 0.000000 0.000023 0.000009 -11.038128 1628.361328
[R_Mouth01]
61 554.442383 7.659197 -838.223938 29.795891 -23.759109 109.605331 1005.029541
62 554.442383 7.659197 -838.223938 29.795891 -23.759109 109.605331 1005.029541
63 554.442383 7.659197 -838.223938 29.795891 -23.759109 109.605331 1005.029541
[R_mouthFront]
61 551.629089 934.514282 -339.151367 0.000029 -2.803930 79.119133 1136.941162
62 551.629089 934.514282 -339.151367 0.000029 -2.803930 79.119133 1136.941162
63 551.629089 934.514282 -339.151367 0.000029 -2.803930 79.119133 1136.941162
[TopMouth]
61 461.269867 -56.106091 -0.008583 -0.000059 -0.000268 92.025169 464.669525
62 461.269867 -56.106091 -0.008583 -0.000059 -0.000268 92.025169 464.669525
63 461.269867 -56.106091 -0.008583 -0.000059 -0.000268 92.025169 464.669525
[weapon_bone]
61 -987.239868 1448.372803 0.001431 0.000000 89.965736 -31.038221 1752.833740
62 -987.239868 1448.372803 0.001431 0.000000 89.965736 -31.038221 1752.833740
63 -987.239868 1448.372803 0.001431 0.000000 89.965736 -31.038221 1752.833740
